<svg xmlns="http://www.w3.org/2000/svg" width="121mm" height="77mm" viewBox="0 0 428.7399 272.8346"><g><path d="M416.5 187.702l-188.794 76.659c-11.556 5.025-16.109 5.319-28.327-.258l-180.674-79.028c-9.426-3.855-14.995-11.279-15.334-21.587l-.27-59.981c.302-5.86 3.483-13.51 11.808-16.576l197.379-80.294c7.537-2.395 11.175-1.749 16.342.229l181.677 81.08c11.202 6.703 14.574 11.741 15.991 24.711l-.072 59.984c.217 5.604-3.663 12.554-9.726 15.063z" fill="#fff" fill-rule="evenodd" stroke="#000" stroke-width="3.215" stroke-linecap="round" stroke-linejoin="round"/><g stroke="#000"><path d="M215.075 50.098c-1.326 1.092-2.184 3.588-1.794 5.187.117.546.702 2.145 1.248 3.51 1.092 2.769 1.053 4.641-.117 5.928-.78.858-.234 1.794.78 1.404 2.067-.819 2.457-4.524.858-8.346-1.443-3.471-1.287-5.187.663-6.786.507-.39.702-.858.546-1.248-.351-.897-.78-.819-2.184.351z"/><path d="M221.276 52.165c-1.131 1.131-1.209 1.365-1.053 3.276.078 1.092.468 2.769.819 3.705.585 1.56.585 1.794 0 3.042-.702 1.443-.39 2.301.702 1.911 1.56-.624 1.872-3.471.702-6.435-1.014-2.535-.975-2.808.234-4.29.975-1.131 1.014-1.287.429-1.833-.546-.585-.702-.507-1.833.624z"/><path d="M206.573 67.336c-2.145.117-2.457.234-2.457.858 0 .429.195.78.39.78.234 0 .39 3.822.39 10.608.039 13.026.312 14.079 3.978 15.951 1.287.663 2.379.741 9.243.741 4.524 0 8.229-.156 8.892-.429 1.638-.585 3.588-2.652 4.017-4.251.195-.741.39-2.535.39-3.978v-2.652l1.911-.936c3.783-1.911 7.059-6.474 7.059-9.789 0-1.404-1.092-1.755-5.226-1.755h-3.744v-1.755c0-.975.195-1.755.39-1.755.234 0 .39-.351.39-.78 0-.702-.273-.78-3.198-.819-1.794 0-7.02-.039-11.622-.078s-9.477-.039-10.803.039zm22.893 12.558c0 12.051-.117 12.675-2.34 13.845-.897.468-2.73.585-9.165.585h-7.995l-1.482-1.326-1.443-1.326-.117-11.349-.117-11.349h22.659v10.92zm8.775-4.407c-.624 2.652-3.12 5.616-5.928 7.098l-.897.468v-8.619h7.098l-.273 1.053z"/><path d="M209.654 78.997c.117 7.02.156 7.332.897 7.332s.78-.312.897-7.332l.078-7.293h-1.95l.078 7.293z"/><path d="M209.576 98.029v.975h17.16v-1.95h-17.16v.975z"/></g><text style="line-height:125%;-inkscape-font-specification:'Aharoni, Bold';text-align:start" x="81.518" y="873.761" font-weight="bold" font-size="29.806" font-family="Aharoni" letter-spacing="0" word-spacing="0" transform="translate(0 -779.528)"><tspan x="81.518" y="873.761">SINCE</tspan></text><text style="line-height:125%;-inkscape-font-specification:'Aharoni, Bold';text-align:start" x="271.682" y="874.291" font-weight="bold" font-size="40" font-family="Aharoni" letter-spacing="0" word-spacing="0" transform="translate(0 -779.528)"><tspan x="271.682" y="874.291">1982</tspan></text><text style="line-height:125%;-inkscape-font-specification:'Aharoni, Bold';text-align:start" x="47.675" y="935.61" font-weight="bold" font-size="50.88" font-family="Aharoni" letter-spacing="0" word-spacing="0" transform="translate(0 -779.528)"><tspan x="47.675" y="935.61">COFFEE SHOP</tspan></text><text style="line-height:125%;-inkscape-font-specification:'Aharoni, Bold';text-align:start" x="116.98" y="980.58" font-weight="bold" font-size="27.935" font-family="Aharoni" letter-spacing="0" word-spacing="0" transform="translate(0 -779.528)"><tspan x="116.98" y="980.58">COFFE &amp; MORE</tspan></text></g></svg>