<?xml version="1.0" encoding="UTF-8" standalone="no"?>
<svg
   xmlns:dc="http://purl.org/dc/elements/1.1/"
   xmlns:cc="http://creativecommons.org/ns#"
   xmlns:rdf="http://www.w3.org/1999/02/22-rdf-syntax-ns#"
   xmlns:svg="http://www.w3.org/2000/svg"
   xmlns="http://www.w3.org/2000/svg"
   xmlns:sodipodi="http://sodipodi.sourceforge.net/DTD/sodipodi-0.dtd"
   xmlns:inkscape="http://www.inkscape.org/namespaces/inkscape"
   width="54mm"
   height="34mm"
   viewBox="0 0 191.33846 120.47236"
   id="svg2"
   version="1.1"
   inkscape:version="0.91 r13725"
   sodipodi:docname="logo.svg">
  <metadata
     id="metadata28">
    <rdf:RDF>
      <cc:Work
         rdf:about="">
        <dc:format>image/svg+xml</dc:format>
        <dc:type
           rdf:resource="http://purl.org/dc/dcmitype/StillImage" />
        <dc:title></dc:title>
      </cc:Work>
    </rdf:RDF>
  </metadata>
  <defs
     id="defs26" />
  <sodipodi:namedview
     pagecolor="#ffffff"
     bordercolor="#666666"
     borderopacity="1"
     objecttolerance="10"
     gridtolerance="10"
     guidetolerance="10"
     inkscape:pageopacity="0"
     inkscape:pageshadow="2"
     inkscape:window-width="1920"
     inkscape:window-height="1027"
     id="namedview24"
     showgrid="false"
     inkscape:zoom="3.79991"
     inkscape:cx="157.52199"
     inkscape:cy="85.167349"
     inkscape:window-x="1912"
     inkscape:window-y="22"
     inkscape:window-maximized="1"
     inkscape:current-layer="g4156" />
  <g
     id="g4156"
     transform="matrix(0.66734505,0,0,0.66734505,-0.24751993,-58.885053)">
    <path
       style="fill:#ffffff;fill-rule:evenodd;stroke:#000000;stroke-width:2.13866615;stroke-linecap:round;stroke-linejoin:round"
       inkscape:connector-curvature="0"
       id="path4"
       d="m 276.77337,213.7135 -125.58861,50.99472 c -7.68722,3.3427 -10.71594,3.53827 -18.84354,-0.17163 L 12.15416,211.96597 C 5.8838424,209.40157 2.1792599,204.46301 1.9537519,197.60598 l -0.179608,-39.90026 c 0.200895,-3.89816 2.316944,-8.98706 7.8548582,-11.02661 L 140.92848,93.26633 c 5.01372,-1.593189 7.43378,-1.163461 10.87094,0.152335 L 272.6537,147.3543 c 7.45174,4.45894 9.69484,7.8103 10.63745,16.43813 l -0.0479,39.90226 c 0.14435,3.72786 -2.43668,8.35111 -6.46988,10.02013 z" />
    <path
       style="stroke:#000000;stroke-width:0.64684445"
       inkscape:connector-curvature="0"
       id="path6"
       d="m 146.12843,118.70249 c -0.85771,0.70636 -1.4127,2.32088 -1.16043,3.35518 0.0757,0.35318 0.45408,1.38749 0.80726,2.27043 0.70635,1.79111 0.68112,3.00201 -0.0757,3.83449 -0.50454,0.555 -0.15136,1.16044 0.50453,0.90818 1.33703,-0.52977 1.58931,-2.92633 0.555,-5.39857 -0.9334,-2.2452 -0.83249,-3.35519 0.42886,-4.38949 0.32795,-0.25227 0.45408,-0.55499 0.35317,-0.80726 -0.22704,-0.58022 -0.50454,-0.52976 -1.41271,0.22704 z m 4.01109,1.33703 c -0.73158,0.73158 -0.78203,0.88294 -0.68113,2.11906 0.0505,0.70636 0.30272,1.79111 0.52976,2.39656 0.37841,1.00908 0.37841,1.16044 0,1.9677 -0.45408,0.9334 -0.25227,1.48839 0.45409,1.23612 1.00908,-0.40362 1.21089,-2.24519 0.45409,-4.16244 -0.65591,-1.63975 -0.63068,-1.81634 0.15136,-2.77497 0.63067,-0.73157 0.65589,-0.83248 0.2775,-1.18566 -0.35318,-0.3784 -0.45409,-0.32795 -1.18567,0.40363 z m -9.51055,9.81328 c -1.38749,0.0757 -1.58931,0.15136 -1.58931,0.55499 0,0.2775 0.12614,0.50454 0.25227,0.50454 0.15137,0 0.25228,2.47224 0.25228,6.86173 0.0252,8.42579 0.20181,9.10692 2.57315,10.31781 0.83248,0.42886 1.53884,0.47931 5.97877,0.47931 2.92633,0 5.32289,-0.1009 5.75175,-0.27749 1.05953,-0.37841 2.32088,-1.71543 2.59837,-2.74974 0.12614,-0.47931 0.25227,-1.63975 0.25227,-2.57315 l 0,-1.71543 1.23612,-0.60545 c 2.44702,-1.23611 4.56607,-4.18767 4.56607,-6.33195 0,-0.90818 -0.70635,-1.13522 -3.38041,-1.13522 l -2.42178,0 0,-1.13521 c 0,-0.63067 0.12614,-1.13521 0.25227,-1.13521 0.15136,0 0.25227,-0.22704 0.25227,-0.50454 0,-0.45409 -0.17659,-0.50454 -2.06861,-0.52977 -1.16044,0 -4.54085,-0.0252 -7.51762,-0.0504 -2.97679,-0.0252 -6.13015,-0.0252 -6.98786,0.0253 z m 14.8082,8.12307 c 0,7.79512 -0.0757,8.19875 -1.51361,8.95556 -0.58023,0.30273 -1.76589,0.3784 -5.92834,0.3784 l -5.17152,0 -0.95861,-0.85771 -0.93341,-0.85772 -0.0757,-7.34104 -0.0757,-7.34103 14.65685,0 0,7.06354 z m 5.67606,-2.85064 c -0.40363,1.71543 -2.01815,3.63267 -3.83449,4.5913 l -0.58022,0.30273 0,-5.57516 4.5913,0 -0.17659,0.68113 z m -18.49134,2.27042 c 0.0757,4.54084 0.10091,4.74266 0.58022,4.74266 0.47931,0 0.50454,-0.20182 0.58022,-4.74266 l 0.0505,-4.71743 -1.26136,0 0.0505,4.71743 z m -0.0505,12.31074 0,0.63068 11.09986,0 0,-1.26135 -11.09986,0 0,0.63067 z" />
    <text
       sodipodi:linespacing="125%"
       id="text8"
       word-spacing="0"
       letter-spacing="0"
       font-size="29.806"
       font-weight="bold"
       y="147.25096"
       x="59.737839"
       style="font-weight:bold;font-size:19.27984619px;line-height:125%;font-family:Aharoni;-inkscape-font-specification:'Aharoni, Bold';text-align:start;letter-spacing:0;word-spacing:0">
      <tspan
         id="tspan10"
         y="147.25096"
         x="59.737839">SINCE</tspan>
    </text>
    <text
       sodipodi:linespacing="125%"
       id="text12"
       word-spacing="0"
       letter-spacing="0"
       font-size="40"
       font-weight="bold"
       y="147.5938"
       x="182.74437"
       style="font-weight:bold;font-size:25.87377739px;line-height:125%;font-family:Aharoni;-inkscape-font-specification:'Aharoni, Bold';text-align:start;letter-spacing:0;word-spacing:0">
      <tspan
         id="tspan14"
         y="147.5938"
         x="182.74437">1982</tspan>
    </text>
    <text
       sodipodi:linespacing="125%"
       id="text16"
       word-spacing="0"
       letter-spacing="0"
       font-size="50.88"
       font-weight="bold"
       y="187.25763"
       x="37.846684"
       style="font-weight:bold;font-size:32.91144562px;line-height:125%;font-family:Aharoni;-inkscape-font-specification:'Aharoni, Bold';text-align:start;letter-spacing:0;word-spacing:0">
      <tspan
         id="tspan18"
         y="187.25763"
         x="37.846684">COFFEE SHOP</tspan>
    </text>
    <text
       sodipodi:linespacing="125%"
       id="text20"
       word-spacing="0"
       letter-spacing="0"
       font-size="27.935"
       font-weight="bold"
       y="216.34625"
       x="82.676247"
       style="font-weight:bold;font-size:18.06959915px;line-height:125%;font-family:Aharoni;-inkscape-font-specification:'Aharoni, Bold';text-align:start;letter-spacing:0;word-spacing:0">
      <tspan
         id="tspan22"
         y="216.34625"
         x="82.676247">COFFE &amp; MORE</tspan>
    </text>
  </g>
</svg>
