<?xml version="1.0" encoding="UTF-8" standalone="no"?>
<svg
   xmlns:dc="http://purl.org/dc/elements/1.1/"
   xmlns:cc="http://creativecommons.org/ns#"
   xmlns:rdf="http://www.w3.org/1999/02/22-rdf-syntax-ns#"
   xmlns:svg="http://www.w3.org/2000/svg"
   xmlns="http://www.w3.org/2000/svg"
   xmlns:sodipodi="http://sodipodi.sourceforge.net/DTD/sodipodi-0.dtd"
   xmlns:inkscape="http://www.inkscape.org/namespaces/inkscape"
   width="62mm"
   height="40mm"
   viewBox="0 0 219.68491 141.7322"
   id="svg2"
   version="1.1"
   inkscape:version="0.91 r13725"
   sodipodi:docname="logo.svg">
  <metadata
     id="metadata28">
    <rdf:RDF>
      <cc:Work
         rdf:about="">
        <dc:format>image/svg+xml</dc:format>
        <dc:type
           rdf:resource="http://purl.org/dc/dcmitype/StillImage" />
        <dc:title></dc:title>
      </cc:Work>
    </rdf:RDF>
  </metadata>
  <defs
     id="defs26" />
  <sodipodi:namedview
     pagecolor="#ffffff"
     bordercolor="#666666"
     borderopacity="1"
     objecttolerance="10"
     gridtolerance="10"
     guidetolerance="10"
     inkscape:pageopacity="0"
     inkscape:pageshadow="2"
     inkscape:window-width="1920"
     inkscape:window-height="1027"
     id="namedview24"
     showgrid="false"
     inkscape:zoom="0.67173554"
     inkscape:cx="-212.13706"
     inkscape:cy="136.41732"
     inkscape:window-x="1912"
     inkscape:window-y="22"
     inkscape:window-maximized="1"
     inkscape:current-layer="svg2" />
  <g
     id="g4156"
     transform="matrix(0.66734505,0,0,0.66734505,0.49682018,-41.346924)">
    <path
       style="fill:#ffffff;fill-rule:evenodd;stroke:#000000;stroke-width:2.48543072;stroke-linecap:round;stroke-linejoin:round"
       inkscape:connector-curvature="0"
       id="path4"
       d="m 322.32396,206.33569 -145.95161,59.26303 c -8.93363,3.88469 -12.45343,4.11197 -21.89884,-0.19946 L 14.799252,204.30482 C 7.5122625,201.32463 3.2070171,195.58533 2.9449452,187.61649 L 2.7362154,141.24678 c 0.2334682,-4.53021 2.6926145,-10.44422 9.1284496,-12.81447 L 164.45311,66.359162 c 5.82665,-1.85151 8.63909,-1.352105 12.63356,0.177034 l 140.44965,62.680784 c 8.65997,5.18191 11.26677,9.07666 12.36222,19.10342 l -0.0557,46.37203 c 0.16776,4.3323 -2.83176,9.70516 -7.51891,11.6448 z" />
    <path
       style="stroke:#000000;stroke-width:0.77307338"
       inkscape:connector-curvature="0"
       id="path6"
       d="m 166.60766,99.957703 c -1.02509,0.844197 -1.68839,2.773787 -1.38689,4.009927 0.0905,0.4221 0.5427,1.65825 0.9648,2.71349 0.84419,2.14064 0.81404,3.58784 -0.0905,4.58278 -0.603,0.6633 -0.1809,1.38689 0.60299,1.0854 1.59795,-0.63315 1.89945,-3.49739 0.6633,-6.45207 -1.11554,-2.68334 -0.99494,-4.00994 0.51255,-5.24608 0.39195,-0.3015 0.5427,-0.663297 0.4221,-0.964796 -0.27135,-0.693446 -0.603,-0.633147 -1.6884,0.271349 z m 4.79383,1.597947 c -0.87434,0.87434 -0.93464,1.05524 -0.81404,2.53258 0.0603,0.8442 0.36179,2.14064 0.63314,2.86424 0.45225,1.206 0.45225,1.38689 0,2.35169 -0.54269,1.11554 -0.3015,1.77884 0.5427,1.47734 1.206,-0.48239 1.44719,-2.68333 0.5427,-4.97472 -0.7839,-1.95974 -0.75375,-2.17079 0.1809,-3.31649 0.75374,-0.87434 0.78389,-0.99494 0.33165,-1.41704 -0.4221,-0.45225 -0.5427,-0.39195 -1.41705,0.4824 z M 160.035,113.28394 c -1.65825,0.0905 -1.89945,0.1809 -1.89945,0.6633 0,0.33165 0.15075,0.603 0.3015,0.603 0.1809,0 0.3015,2.95468 0.3015,8.20076 0.0301,10.07005 0.2412,10.8841 3.07529,12.33129 0.99494,0.51255 1.83914,0.57285 7.14551,0.57285 3.49739,0 6.36162,-0.1206 6.87417,-0.33165 1.2663,-0.45225 2.77379,-2.05019 3.10544,-3.28634 0.15075,-0.57284 0.3015,-1.95974 0.3015,-3.07528 l 0,-2.05019 1.47734,-0.7236 c 2.92454,-1.47734 5.45712,-5.00488 5.45712,-7.56761 0,-1.0854 -0.84419,-1.35675 -4.04008,-1.35675 l -2.89438,0 0,-1.35674 c 0,-0.75375 0.15075,-1.35674 0.30149,-1.35674 0.1809,0 0.3015,-0.27135 0.3015,-0.603 0,-0.5427 -0.21105,-0.603 -2.47229,-0.63315 -1.38689,0 -5.42697,-0.0301 -8.98465,-0.0603 -3.55769,-0.0301 -7.32642,-0.0301 -8.35151,0.0302 z m 17.69796,9.70826 c 0,9.3163 -0.0905,9.7987 -1.80899,10.7032 -0.69345,0.3618 -2.11049,0.45224 -7.08522,0.45224 l -6.18072,0 -1.14569,-1.02509 -1.11555,-1.0251 -0.0905,-8.77361 -0.0905,-8.7736 17.51707,0 0,8.44196 z m 6.78372,-3.40694 c -0.4824,2.05019 -2.41199,4.34158 -4.58278,5.48728 l -0.69344,0.3618 0,-6.66312 5.48727,0 -0.21105,0.81404 z m -22.09985,2.71349 c 0.0905,5.42697 0.1206,5.66817 0.69345,5.66817 0.57285,0 0.603,-0.2412 0.69345,-5.66817 l 0.0603,-5.63802 -1.5075,0 0.0603,5.63802 z m -0.0603,14.71313 0,0.75375 13.26594,0 0,-1.50749 -13.26594,0 0,0.75374 z" />
    <text
       sodipodi:linespacing="125%"
       id="text8"
       word-spacing="0"
       letter-spacing="0"
       font-size="29.806"
       font-weight="bold"
       y="134.07729"
       x="63.358307"
       style="font-weight:bold;font-size:23.04222488px;line-height:125%;font-family:Aharoni;-inkscape-font-specification:'Aharoni, Bold';text-align:start;letter-spacing:0;word-spacing:0">
      <tspan
         id="tspan10"
         y="134.07729"
         x="63.358307">SINCE</tspan>
    </text>
    <text
       sodipodi:linespacing="125%"
       id="text12"
       word-spacing="0"
       letter-spacing="0"
       font-size="40"
       font-weight="bold"
       y="134.48703"
       x="210.36903"
       style="font-weight:bold;font-size:30.92293358px;line-height:125%;font-family:Aharoni;-inkscape-font-specification:'Aharoni, Bold';text-align:start;letter-spacing:0;word-spacing:0">
      <tspan
         id="tspan14"
         y="134.48703"
         x="210.36903">1982</tspan>
    </text>
    <text
       sodipodi:linespacing="125%"
       id="text16"
       word-spacing="0"
       letter-spacing="0"
       font-size="50.88"
       font-weight="bold"
       y="181.8911"
       x="37.195187"
       style="font-weight:bold;font-size:39.33397293px;line-height:125%;font-family:Aharoni;-inkscape-font-specification:'Aharoni, Bold';text-align:start;letter-spacing:0;word-spacing:0">
      <tspan
         id="tspan18"
         y="181.8911"
         x="37.195187">COFFEE SHOP</tspan>
    </text>
    <text
       sodipodi:linespacing="125%"
       id="text20"
       word-spacing="0"
       letter-spacing="0"
       font-size="27.935"
       font-weight="bold"
       y="216.65623"
       x="90.773041"
       style="font-weight:bold;font-size:21.59580421px;line-height:125%;font-family:Aharoni;-inkscape-font-specification:'Aharoni, Bold';text-align:start;letter-spacing:0;word-spacing:0">
      <tspan
         id="tspan22"
         y="216.65623"
         x="90.773041">COFFE &amp; MORE</tspan>
    </text>
  </g>
</svg>
